<svg width="589" height="189" viewBox="0 0 589 189" fill="none" xmlns="http://www.w3.org/2000/svg">
  <path
    d="M0.445312 69.7598C0.445312 67.679 0.628906 65.8431 0.996094 64.252C1.36328 62.5996 2.06706 61.2533 3.10742 60.2129C4.14779 59.1725 5.58594 58.377 7.42188 57.8262C9.25781 57.2754 11.6445 57 14.582 57H52.127C54.8809 57 57.2064 57.2754 59.1035 57.8262C61.0007 58.377 62.3776 59.3255 63.2344 60.6719C64.0299 60.0599 65.0091 59.4479 66.1719 58.8359C67.3346 58.1628 68.5892 57.5508 69.9355 57C71.3431 56.4492 72.8118 56.0208 74.3418 55.7148C75.9329 55.3477 77.5547 55.1641 79.207 55.1641C84.8372 55.1641 89.2741 57.0306 92.5176 60.7637C93.3743 60.1517 94.2923 59.5397 95.2715 58.9277C96.4954 58.1934 97.8418 57.5508 99.3105 57C100.779 56.4492 102.34 56.0208 103.992 55.7148C105.645 55.3477 107.297 55.1641 108.949 55.1641C114.824 55.1641 119.383 57.1836 122.627 61.2227C125.932 65.2617 127.584 71.1979 127.584 79.0312V146.686C127.584 147.726 127.431 148.552 127.125 149.164C126.88 149.715 126.544 150.143 126.115 150.449C125.687 150.694 125.197 150.847 124.646 150.908C124.096 150.969 123.545 151 122.994 151H117.211C115.62 151 114.579 150.541 114.09 149.623C113.661 148.705 113.447 147.726 113.447 146.686V78.1133C113.447 74.625 112.805 71.9629 111.52 70.127C110.296 68.291 108.307 67.373 105.553 67.373C104.818 67.373 104.053 67.526 103.258 67.832C102.462 68.0768 101.667 68.4134 100.871 68.8418C100.076 69.2702 99.3411 69.7292 98.668 70.2188C98.1172 70.6471 97.6276 71.0449 97.1992 71.4121C97.6276 73.7376 97.8418 76.2773 97.8418 79.0312V146.686C97.8418 147.726 97.6888 148.552 97.3828 149.164C97.138 149.715 96.8014 150.143 96.373 150.449C96.0059 150.694 95.5469 150.847 94.9961 150.908C94.4453 150.969 93.8945 151 93.3438 151H87.4688C85.8776 151 84.8372 150.541 84.3477 149.623C83.9193 148.705 83.7051 147.726 83.7051 146.686V78.1133C83.7051 74.625 83.0625 71.9629 81.7773 70.127C80.5534 68.291 78.5645 67.373 75.8105 67.373C74.403 67.373 72.9648 67.7708 71.4961 68.5664C70.0885 69.3008 68.9564 70.0964 68.0996 70.9531V138.148C68.0996 140.29 67.916 142.157 67.5488 143.748C67.1816 145.339 66.4779 146.686 65.4375 147.787C64.3971 148.827 62.959 149.623 61.123 150.174C59.2871 150.725 56.9004 151 53.9629 151H14.582C11.6445 151 9.25781 150.725 7.42188 150.174C5.58594 149.623 4.14779 148.827 3.10742 147.787C2.06706 146.747 1.36328 145.431 0.996094 143.84C0.628906 142.249 0.445312 140.382 0.445312 138.24V69.7598Z"
    fill="#61E1E0" />
  <path
    d="M197.625 154.213C193.035 154.213 188.445 153.846 183.855 153.111C179.266 152.377 174.859 151.214 170.637 149.623C166.475 148.032 162.589 145.951 158.979 143.381C155.368 140.811 152.216 137.659 149.523 133.926C146.892 130.193 144.811 125.878 143.281 120.982C141.751 116.025 140.986 110.365 140.986 104C140.986 97.7578 141.751 92.1888 143.281 87.293C144.811 82.3359 146.892 77.9909 149.523 74.2578C152.216 70.5247 155.368 67.373 158.979 64.8027C162.589 62.1712 166.475 60.0599 170.637 58.4688C174.859 56.8164 179.266 55.623 183.855 54.8887C188.445 54.1543 193.035 53.7871 197.625 53.7871C201.848 53.7871 206.162 54.0625 210.568 54.6133C215.036 55.1029 219.35 56.0514 223.512 57.459C227.734 58.8053 231.682 60.6719 235.354 63.0586C239.087 65.3841 242.33 68.3828 245.084 72.0547C247.899 75.7266 250.102 80.1328 251.693 85.2734C253.346 90.3529 254.172 96.3503 254.172 103.266C254.172 110.365 253.376 116.576 251.785 121.9C250.194 127.163 247.991 131.692 245.176 135.486C242.422 139.219 239.209 142.31 235.537 144.758C231.865 147.206 227.918 149.133 223.695 150.541C219.534 151.887 215.219 152.836 210.752 153.387C206.285 153.938 201.909 154.213 197.625 154.213ZM225.807 132.182C227.704 132.182 229.57 131.784 231.406 130.988C233.303 130.132 234.956 128.632 236.363 126.49C237.832 124.348 238.995 121.411 239.852 117.678C240.77 113.883 241.229 109.079 241.229 103.266C241.229 97.7578 240.77 93.2292 239.852 89.6797C238.995 86.1302 237.832 83.3457 236.363 81.3262C234.895 79.2454 233.242 77.8073 231.406 77.0117C229.57 76.2161 227.704 75.8184 225.807 75.8184C224.338 75.8184 222.686 76.1243 220.85 76.7363C219.075 77.3483 217.392 78.6641 215.801 80.6836C214.271 82.6419 212.986 85.4876 211.945 89.2207C210.905 92.8926 210.385 97.819 210.385 104C210.385 110.181 210.813 115.138 211.67 118.871C212.527 122.604 213.659 125.45 215.066 127.408C216.474 129.367 218.096 130.652 219.932 131.264C221.829 131.876 223.787 132.182 225.807 132.182Z"
    fill="#F7F9F9" />
  <path
    d="M267.574 13.3965C267.574 11.3158 267.758 9.47982 268.125 7.88867C268.492 6.23633 269.196 4.88997 270.236 3.84961C271.277 2.80924 272.715 2.01367 274.551 1.46289C276.387 0.912109 278.773 0.636719 281.711 0.636719H321.918C324.733 0.636719 326.997 0.912109 328.711 1.46289C330.424 2.01367 331.771 2.80924 332.75 3.84961C333.729 4.88997 334.372 6.23633 334.678 7.88867C335.045 9.47982 335.229 11.3158 335.229 13.3965V79.6738L357.26 57.8262C357.933 57.153 358.576 56.694 359.188 56.4492C359.799 56.1432 360.35 55.9902 360.84 55.9902C361.941 55.9902 362.89 56.4492 363.686 57.3672L368.275 62.1406C368.949 62.9362 369.285 63.7012 369.285 64.4355C369.285 65.1087 369.04 65.7819 368.551 66.4551C368.122 67.1283 367.388 67.8626 366.348 68.6582L337.615 89.8633C342.695 90.0469 346.979 90.7201 350.467 91.8828C353.955 92.9844 356.77 94.6061 358.912 96.748C361.054 98.89 362.584 101.552 363.502 104.734C364.481 107.917 364.971 111.619 364.971 115.842V146.686C364.971 147.726 364.818 148.552 364.512 149.164C364.267 149.715 363.93 150.143 363.502 150.449C363.135 150.694 362.676 150.847 362.125 150.908C361.574 150.969 361.023 151 360.473 151H354.598C353.007 151 351.966 150.541 351.477 149.623C351.048 148.705 350.834 147.726 350.834 146.686V114.924C350.834 112.109 350.559 109.783 350.008 107.947C349.518 106.05 348.661 104.551 347.438 103.449C346.214 102.286 344.592 101.46 342.572 100.971C340.614 100.42 338.166 100.083 335.229 99.9609V138.424C335.229 140.505 335.014 142.34 334.586 143.932C334.219 145.462 333.484 146.777 332.383 147.879C331.281 148.919 329.751 149.715 327.793 150.266C325.835 150.755 323.326 151 320.266 151H281.711C278.773 151 276.387 150.725 274.551 150.174C272.715 149.623 271.277 148.827 270.236 147.787C269.196 146.747 268.492 145.431 268.125 143.84C267.758 142.249 267.574 140.382 267.574 138.24V13.3965Z"
    fill="#F7F9F9" />
  <path
    d="M379.383 13.3965C379.383 11.3158 379.566 9.47982 379.934 7.88867C380.301 6.23633 381.005 4.88997 382.045 3.84961C383.085 2.80924 384.523 2.01367 386.359 1.46289C388.195 0.912109 390.582 0.636719 393.52 0.636719H433.727C436.542 0.636719 438.806 0.912109 440.52 1.46289C442.233 2.01367 443.579 2.80924 444.559 3.84961C445.538 4.88997 446.18 6.23633 446.486 7.88867C446.854 9.47982 447.037 11.3158 447.037 13.3965V79.6738L469.068 57.8262C469.742 57.153 470.384 56.694 470.996 56.4492C471.608 56.1432 472.159 55.9902 472.648 55.9902C473.75 55.9902 474.699 56.4492 475.494 57.3672L480.084 62.1406C480.757 62.9362 481.094 63.7012 481.094 64.4355C481.094 65.1087 480.849 65.7819 480.359 66.4551C479.931 67.1283 479.197 67.8626 478.156 68.6582L449.424 89.8633C454.503 90.0469 458.787 90.7201 462.275 91.8828C465.764 92.9844 468.579 94.6061 470.721 96.748C472.863 98.89 474.393 101.552 475.311 104.734C476.29 107.917 476.779 111.619 476.779 115.842V146.686C476.779 147.726 476.626 148.552 476.32 149.164C476.076 149.715 475.739 150.143 475.311 150.449C474.943 150.694 474.484 150.847 473.934 150.908C473.383 150.969 472.832 151 472.281 151H466.406C464.815 151 463.775 150.541 463.285 149.623C462.857 148.705 462.643 147.726 462.643 146.686V114.924C462.643 112.109 462.367 109.783 461.816 107.947C461.327 106.05 460.47 104.551 459.246 103.449C458.022 102.286 456.4 101.46 454.381 100.971C452.423 100.42 449.975 100.083 447.037 99.9609V138.424C447.037 140.505 446.823 142.34 446.395 143.932C446.027 145.462 445.293 146.777 444.191 147.879C443.09 148.919 441.56 149.715 439.602 150.266C437.643 150.755 435.134 151 432.074 151H393.52C390.582 151 388.195 150.725 386.359 150.174C384.523 149.623 383.085 148.827 382.045 147.787C381.005 146.747 380.301 145.431 379.934 143.84C379.566 142.249 379.383 140.382 379.383 138.24V13.3965Z"
    fill="#F7F9F9" />
  <path
    d="M556.367 96.0137L569.219 62.416C569.525 61.6204 569.8 60.9167 570.045 60.3047C570.29 59.6315 570.596 59.0501 570.963 58.5605C571.33 58.071 571.82 57.7038 572.432 57.459C573.044 57.153 573.839 57 574.818 57H585.559C587.272 57 588.129 57.4896 588.129 58.4688C588.129 59.2643 587.823 60.3965 587.211 61.8652L535.346 184.23C534.979 185.026 534.673 185.699 534.428 186.25C534.183 186.862 533.877 187.352 533.51 187.719C533.204 188.086 532.806 188.361 532.316 188.545C531.827 188.729 531.154 188.82 530.297 188.82H518.455C516.619 188.82 515.701 188.27 515.701 187.168C515.701 186.434 516.068 185.332 516.803 183.863L530.389 154.488L483.664 64.7109C483.358 64.099 483.113 63.487 482.93 62.875C482.807 62.263 482.746 61.7122 482.746 61.2227C482.746 59.6927 483.327 58.6217 484.49 58.0098C485.714 57.3366 486.938 57 488.162 57H534.703C536.906 57 538.589 57.459 539.752 58.377C540.976 59.2337 541.771 60.0905 542.139 60.9473L556.367 96.0137Z"
    fill="#F7F9F9" />
</svg>