<svg width="778" height="201" viewBox="0 0 778 201" fill="none" xmlns="http://www.w3.org/2000/svg">
<path d="M239.821 174L205.421 61.9999H204.621C204.755 64.6665 204.955 68.6665 205.221 73.9999C205.488 79.3332 205.755 85.0666 206.021 91.1999C206.288 97.1999 206.421 102.667 206.421 107.6V174H179.421V31.1999H220.621L254.421 140.4H255.021L290.821 31.1999H332.021V174H303.821V106.4C303.821 101.867 303.888 96.6666 304.021 90.7999C304.288 84.9332 304.488 79.3999 304.621 74.1999C304.888 68.8665 305.088 64.8665 305.221 62.1999H304.421L267.621 174H239.821Z" fill="#F7F9F9"/>
<path d="M465.693 102.4C465.693 113.467 464.293 123.533 461.493 132.6C458.827 141.533 454.693 149.267 449.093 155.8C443.627 162.333 436.56 167.333 427.893 170.8C419.36 174.267 409.293 176 397.693 176C386.093 176 375.96 174.267 367.293 170.8C358.76 167.2 351.693 162.2 346.093 155.8C340.627 149.267 336.493 141.467 333.693 132.4C331.027 123.333 329.693 113.267 329.693 102.2C329.693 87.3999 332.093 74.5332 336.893 63.5999C341.827 52.6665 349.293 44.1999 359.293 38.1999C369.427 32.0665 382.293 28.9999 397.893 28.9999C413.36 28.9999 426.093 32.0665 436.093 38.1999C446.093 44.1999 453.493 52.7332 458.293 63.7999C463.227 74.7332 465.693 87.5999 465.693 102.4ZM361.493 102.4C361.493 112.4 362.76 121 365.293 128.2C367.827 135.4 371.76 140.933 377.093 144.8C382.427 148.667 389.293 150.6 397.693 150.6C406.36 150.6 413.293 148.667 418.493 144.8C423.827 140.933 427.693 135.4 430.093 128.2C432.627 121 433.893 112.4 433.893 102.4C433.893 87.3332 431.093 75.5332 425.493 66.9999C419.893 58.4666 410.693 54.1999 397.893 54.1999C389.36 54.1999 382.427 56.1332 377.093 59.9999C371.76 63.8666 367.827 69.3999 365.293 76.5999C362.76 83.7999 361.493 92.3999 361.493 102.4Z" fill="#F7F9F9"/>
<path d="M578.073 174H543.673L506.273 113.8L493.473 123V174H463.273V31.1999H493.473V96.5999C495.473 93.7999 497.473 90.9999 499.473 88.1999C501.473 85.3999 503.473 82.5999 505.473 79.7999L544.073 31.1999H577.673L527.873 94.3999L578.073 174Z" fill="#F7F9F9"/>
<path d="M678.885 174H644.485L607.085 113.8L594.285 123V174H564.085V31.1999H594.285V96.5999C596.285 93.7999 598.285 90.9999 600.285 88.1999C602.285 85.3999 604.285 82.5999 606.285 79.7999L644.885 31.1999H678.485L628.685 94.3999L678.885 174Z" fill="#F7F9F9"/>
<path d="M715.298 89.9999L745.098 31.1999H777.698L730.298 118.4V174H700.298V119.4L652.898 31.1999H685.698L715.298 89.9999Z" fill="#F7F9F9"/>
<path d="M1.82843 72.539C0.266337 70.9769 0.266335 68.4442 1.82843 66.8821L66.8823 1.82831C68.4444 0.266215 70.977 0.266213 72.5391 1.82831L137.593 66.8821C139.155 68.4442 139.155 70.9769 137.593 72.539L72.5391 137.593C70.977 139.155 68.4444 139.155 66.8823 137.593L1.82843 72.539Z" fill="#F7F9F9"/>
<path d="M1.82843 102.539C0.266337 100.977 0.266335 98.4442 1.82843 96.8821L66.8823 31.8283C68.4444 30.2662 70.977 30.2662 72.5391 31.8283L137.593 96.8821C139.155 98.4442 139.155 100.977 137.593 102.539L72.5391 167.593C70.977 169.155 68.4444 169.155 66.8823 167.593L1.82843 102.539Z" fill="#FFC4EB"/>
<path d="M1.82843 134.539C0.266337 132.977 0.266335 130.444 1.82843 128.882L66.8823 63.8283C68.4444 62.2662 70.977 62.2662 72.5391 63.8283L137.593 128.882C139.155 130.444 139.155 132.977 137.593 134.539L72.5391 199.593C70.977 201.155 68.4444 201.155 66.8823 199.593L1.82843 134.539Z" fill="#61E1E0"/>
</svg>
