<?xml version="1.0" encoding="UTF-8"?>
<!DOCTYPE svg PUBLIC "-//W3C//DTD SVG 1.1//EN" "http://www.w3.org/Graphics/SVG/1.1/DTD/svg11.dtd">
<!-- Creator: CorelDRAW -->
<svg xmlns="http://www.w3.org/2000/svg" xml:space="preserve" width="1.70666in" height="1.70666in" version="1.1" style="shape-rendering:geometricPrecision; text-rendering:geometricPrecision; image-rendering:optimizeQuality; fill-rule:evenodd; clip-rule:evenodd"
viewBox="0 0 1707 1707"
 xmlns:xlink="http://www.w3.org/1999/xlink">
 <defs>
  <style type="text/css">
   <![CDATA[
    .fil0 {fill:black}
   ]]>
  </style>
 </defs>
 <g id="Layer_x0020_1">
  <metadata id="CorelCorpID_0Corel-Layer"/>
  <g id="_336290824">
   <g>
    <g>
     <path class="fil0" d="M1613 1707l-1519 0c-14,0 -25,-11 -25,-25l0 -1389c0,-77 61,-138 135,-138l106 0c14,0 25,11 25,25 0,14 -11,25 -25,25l-106 0c-48,0 -87,40 -87,89l0 1366 1471 0 0 -1367c0,-49 -40,-89 -89,-89l-104 0c-13,0 -25,-11 -25,-25 0,-14 12,-25 25,-25l104 0c77,0 138,61 138,137l0 1391c1,14 -10,25 -24,25z"/>
    </g>
    <g>
     <g>
      <path class="fil0" d="M1120 683c-5,0 -9,-1 -13,-2l-266 -154c-6,-3 -10,-8 -11,-15 -2,-6 -2,-13 3,-18l277 -480c7,-11 22,-15 33,-8l266 153c6,3 10,9 11,16 2,5 2,12 -2,18l-278 478c-4,8 -12,12 -20,12zm-233 -187l223 131 254 -438 -225 -131 -252 438z"/>
     </g>
     <g>
      <path class="fil0" d="M587 683c-3,0 -4,0 -7,-1 -5,-1 -11,-5 -15,-11l-277 -480c-3,-5 -4,-12 -3,-18 1,-5 5,-11 11,-15l268 -154c5,-3 12,-4 18,-3 5,2 11,6 15,11l276 480c7,11 3,27 -9,33l-264 156c-5,1 -9,2 -13,2zm-244 -494l254 438 223 -129 -252 -440 -225 131z"/>
     </g>
     <g>
      <path class="fil0" d="M1131 50l-555 0c-14,0 -25,-11 -25,-25 0,-14 11,-25 25,-25l555 0c13,0 25,11 25,25 0,14 -13,25 -25,25z"/>
     </g>
    </g>
    <g>
     <path class="fil0" d="M620 1231c-5,0 -9,-1 -13,-4l-139 -104 -139 104c-7,6 -16,7 -25,3 -8,-4 -14,-13 -14,-22l0 -336c0,-14 12,-25 25,-25l308 0c14,0 25,11 25,25l0 334c0,10 -5,18 -14,22 -7,2 -9,3 -14,3zm-153 -163c5,0 9,1 13,4l115 86 0 -262 -257 0 0 262 115 -86c4,-3 8,-4 14,-4z"/>
    </g>
    <g>
     <path class="fil0" d="M1394 1231c-6,0 -10,-1 -14,-4l-138 -104 -139 104c-7,6 -17,7 -25,3 -8,-4 -14,-13 -14,-22l0 -336c0,-14 11,-25 25,-25l308 0c14,0 25,11 25,25l0 334c0,10 -6,18 -14,22 -7,2 -11,3 -14,3zm-154 -163c6,0 10,1 14,4l115 86 0 -262 -258 0 0 262 115 -86c4,-3 9,-4 14,-4z"/>
    </g>
    <g>
     <path class="fil0" d="M1613 1477l-1519 0c-14,0 -25,-12 -25,-25 0,-14 11,-25 25,-25l1519 0c14,0 25,11 25,25 0,13 -11,25 -25,25z"/>
    </g>
    <g>
     <g>
      <path class="fil0" d="M853 758c-14,0 -25,-11 -25,-25l0 -61c0,-13 11,-25 25,-25 14,0 25,12 25,25l0 61c-1,14 -12,25 -25,25z"/>
     </g>
     <g>
      <path class="fil0" d="M853 941c-14,0 -25,-11 -25,-25l0 -59c0,-14 11,-25 25,-25 14,0 25,11 25,25l0 59c-1,14 -12,25 -25,25z"/>
     </g>
     <g>
      <path class="fil0" d="M853 1124c-14,0 -25,-11 -25,-25l0 -61c0,-13 11,-25 25,-25 14,0 25,12 25,25l0 61c-1,16 -12,25 -25,25z"/>
     </g>
     <g>
      <path class="fil0" d="M853 1309c-14,0 -25,-11 -25,-25l0 -61c0,-14 11,-25 25,-25 14,0 25,11 25,25l0 61c-1,14 -12,25 -25,25z"/>
     </g>
    </g>
   </g>
  </g>
 </g>
</svg>
