<svg id="Layer_1" data-name="Layer 1" xmlns="http://www.w3.org/2000/svg" viewBox="0 0 64 64"><title>cloth</title><path d="M46,59H18a1,1,0,0,1-1-1V20l-6.4,4.8a1,1,0,0,1-1.4-.2l-6-8a1,1,0,0,1,.09-1.31l2.89-2.88A25.12,25.12,0,0,1,24.06,5a1,1,0,0,1,1,.88A7,7,0,0,0,37,10a7.2,7.2,0,0,0,2-4.08,1,1,0,0,1,1-.87,25.12,25.12,0,0,1,17.88,7.41l2.89,2.88a1,1,0,0,1,.09,1.31l-6,8a1,1,0,0,1-1.4.2L47,20V58A1,1,0,0,1,46,59ZM19,57H45V18a1,1,0,0,1,1.6-.8l7.2,5.4,4.88-6.51-2.27-2.27A23.16,23.16,0,0,0,40.77,7a9.05,9.05,0,0,1-2.4,4.35A8.94,8.94,0,0,1,32,14a9,9,0,0,1-8.78-7A23.15,23.15,0,0,0,7.59,13.82L5.32,16.09,10.2,22.6l7.2-5.4A1,1,0,0,1,19,18Z"></path></svg>
