<?xml version="1.0" encoding="UTF-8"?>
<!DOCTYPE svg PUBLIC "-//W3C//DTD SVG 1.1//EN" "http://www.w3.org/Graphics/SVG/1.1/DTD/svg11.dtd">
<!-- Creator: CorelDRAW -->
<svg xmlns="http://www.w3.org/2000/svg" xml:space="preserve" width="1.70666in" height="1.70666in"
  version="1.1"
  style="shape-rendering:geometricPrecision; text-rendering:geometricPrecision; image-rendering:optimizeQuality; fill-rule:evenodd; clip-rule:evenodd"
  viewBox="0 0 1707 1707"
  xmlns:xlink="http://www.w3.org/1999/xlink">
 <defs>
  <style type="text/css">
   <![CDATA[
    .fil0 {fill:#000002}
   ]]>
  </style>
 </defs>
 <g id="Layer_x0020_1">

  <path class="fil0" d="M644 1390l0 -136 937 0c9,0 16,-4 20,-12l103 -193c4,-7 4,-15 -1,-22 -4,-7 -11,-11 -19,-11l-103 0 0 -749c0,-69 -56,-126 -125,-126l-982 0c-69,0 -125,57 -125,126l0 304 -245 0c-58,0 -104,46 -104,103l0 788c0,57 46,103 104,103l436 0c58,0 104,-46 104,-103l0 -72zm-238 76c0,-12 -10,-22 -23,-22l-124 0c-13,0 -23,10 -23,22 0,13 10,23 23,23l124 0c13,0 23,-10 23,-23zm193 -234l0 136 -554 0 0 -600 554 0 0 271 0 193zm0 -509l-554 0 0 -49c0,-32 27,-58 59,-58l75 0 46 63c4,6 11,9 19,9l157 0c7,0 14,-3 18,-9l46 -63 75 0c33,0 59,26 59,58l0 49zm-190 -107l-20 27 -134 0 -20 -27 137 0 37 0zm1159 593l-924 0 0 -148 136 0 0 74c0,13 10,23 23,23l324 0c13,0 23,-10 23,-23l0 -74 306 0 102 0 88 0 -78 148zm-1116 -840l0 202 -57 0 0 -304c0,-44 35,-80 79,-80l982 0c44,0 80,36 80,80l0 749 -58 0 0 -647c0,-69 -56,-125 -125,-125l-776 0c-69,0 -125,56 -125,125zm182 260l0 0zm10 45l0 0zm158 342l-158 0 0 -270 0 -72c0,-7 -1,-14 -2,-21 0,0 0,0 0,0 -2,-8 -5,-16 -8,-24 -17,-34 -52,-58 -94,-58l-43 0 0 -202c0,-44 36,-80 80,-80l776 0c44,0 80,36 80,80l0 647 -305 0 -1 0 -324 0 -1 0zm303 96l-280 0 0 -51 280 0 0 51zm-1060 301l554 0 0 49c0,32 -26,58 -59,58l-436 0c-32,0 -59,-26 -59,-58l0 -49z"/>
 </g>
</svg>