
<svg xmlns="http://www.w3.org/2000/svg" xml:space="preserve" width="1.70666in" height="1.70666in" version="1.1" style="shape-rendering:geometricPrecision; text-rendering:geometricPrecision; image-rendering:optimizeQuality; fill-rule:evenodd; clip-rule:evenodd"
viewBox="0 0 1707 1707"
 xmlns:xlink="http://www.w3.org/1999/xlink">
 <defs>
  <style type="text/css">
   <![CDATA[
    .fil0 {fill:black}
   ]]>
  </style>
 </defs>
 <g id="Layer_x0020_1">
  <metadata id="CorelCorpID_0Corel-Layer"/>
  <g id="_325440536">
   <g>
    <g>
     <g>
      <path class="fil0" d="M818 1513l-473 0c-6,0 -11,-2 -16,-5 -85,-74 -135,-181 -135,-293l0 -271c0,-42 34,-75 75,-75l624 0c42,0 75,33 75,75l0 271c0,112 -49,219 -135,293 -4,3 -10,5 -15,5zm-465 -46l456 0c72,-65 112,-156 112,-252l0 -271c0,-16 -12,-29 -28,-29l-624 0c-16,0 -28,13 -28,29l0 271c0,96 41,187 112,252z"/>
     </g>
     <g>
      <path class="fil0" d="M818 1513l-473 0c-6,0 -11,-2 -16,-5 -46,-40 -82,-91 -106,-147 -3,-7 -2,-15 3,-21 4,-7 11,-11 19,-11l672 0c8,0 15,4 20,11 4,6 5,14 2,21 -23,56 -60,107 -106,147 -4,3 -10,5 -15,5zm-465 -46l456 0c29,-26 53,-57 71,-91l-598 0c18,34 43,65 71,91z"/>
     </g>
     <g>
      <path class="fil0" d="M945 1060l-727 0c-13,0 -24,-11 -24,-24l0 -92c0,-42 34,-75 75,-75l624 0c42,0 75,33 75,75l0 92c0,13 -10,24 -23,24zm-704 -47l680 0 0 -69c0,-16 -12,-29 -28,-29l-624 0c-16,0 -28,13 -28,29l0 69z"/>
     </g>
     <g>
      <path class="fil0" d="M218 1239c-120,0 -217,-97 -217,-217l0 -39c0,-35 28,-63 63,-63l154 0c12,0 23,10 23,23l0 273c0,13 -11,23 -23,23zm-154 -272c-9,0 -17,7 -17,16l0 40c0,85 64,157 147,168l0 -224 -130 0z"/>
     </g>
    </g>
    <g>
     <g>
      <path class="fil0" d="M1046 1513c-70,0 -138,-11 -204,-32 -7,-2 -13,-8 -15,-16 -2,-8 0,-16 5,-22l8 -9c1,0 1,0 1,0l2 -3c0,0 1,-1 1,-1l2 -2c0,0 1,-1 1,-1l15 -21c0,0 0,0 0,0l2 -3 21 11 -20 -13 16 -25c1,-2 2,-5 3,-7l7 -14c1,-2 2,-4 3,-6l0 -2c18,-42 27,-87 27,-132l0 -271c0,-16 -12,-29 -28,-29l-482 0c-13,0 -23,-9 -24,-22 -1,-14 -1,-27 -1,-40 0,-363 296,-660 660,-660 364,0 660,296 660,660 0,364 -296,660 -660,660zm-156 -66c51,13 103,20 156,20 338,0 613,-276 613,-614 0,-338 -275,-613 -613,-613 -338,0 -613,275 -613,613 0,5 0,11 0,16l460 0c41,0 75,33 75,75l0 271c0,52 -11,102 -31,150l-1 2c-1,3 -2,6 -3,8l-8 15c-1,3 -2,5 -4,8l-17 29c0,0 -1,2 -1,2l-2 3c0,0 0,0 0,0l-11 15z"/>
     </g>
     <g>
      <path class="fil0" d="M1046 1251c-37,0 -73,-5 -108,-15 -10,-3 -17,-12 -17,-22l0 -270c0,-16 -12,-29 -28,-29l-219 0c-12,0 -22,-9 -23,-21 -2,-13 -2,-27 -2,-41 0,-219 178,-397 397,-397 219,0 397,178 397,397 0,219 -178,398 -397,398zm-78 -56c25,6 52,9 78,9 193,0 351,-157 351,-351 0,-193 -158,-350 -351,-350 -194,0 -351,157 -351,350 0,5 0,11 0,16l198 0c41,0 75,33 75,75l0 251 0 0z"/>
     </g>
    </g>
   </g>
  </g>
 </g>
</svg>
