<?xml version="1.0" encoding="UTF-8" standalone="no"?> <svg xmlns="http://www.w3.org/2000/svg" viewBox="0 0 64 64"><title>text</title><g id="_24-text" data-name="24-text"><path d="M10,63a1,1,0,0,1-1-1V56H4a4,4,0,0,1-4-4V32a4,4,0,0,1,4-4H36a4,4,0,0,1,4,4V52a4,4,0,0,1-4,4H18.087l-7.414,6.74A1,1,0,0,1,10,63ZM4,30a2,2,0,0,0-2,2V52a2,2,0,0,0,2,2h6a1,1,0,0,1,1,1v4.739l6.027-5.479A1,1,0,0,1,17.7,54H36a2,2,0,0,0,2-2V32a2,2,0,0,0-2-2Z"/><path d="M60,37H43a1,1,0,0,1,0-2H60a2,2,0,0,0,2-2V13a2,2,0,0,0-2-2H54a1,1,0,0,1-1-1V5.261L46.973,10.74A1,1,0,0,1,46.3,11H28a2,2,0,0,0-2,2V25a1,1,0,0,1-2,0V13a4,4,0,0,1,4-4H45.913l7.414-6.74A1,1,0,0,1,55,3V9h5a4,4,0,0,1,4,4V33A4,4,0,0,1,60,37Z"/><rect x="23" y="36" width="8" height="2"/><rect x="13" y="36" width="8" height="2"/><rect x="25" y="41" width="6" height="2"/><rect x="9" y="41" width="14" height="2"/><rect x="17" y="46" width="10" height="2"/><rect x="9" y="46" width="6" height="2"/><path d="M44,26a3,3,0,1,1,3-3A3,3,0,0,1,44,26Zm0-4a1,1,0,1,0,1,1A1,1,0,0,0,44,22Z"/><path d="M52,26a3,3,0,1,1,3-3A3,3,0,0,1,52,26Zm0-4a1,1,0,1,0,1,1A1,1,0,0,0,52,22Z"/><path d="M36,26a3,3,0,1,1,3-3A3,3,0,0,1,36,26Zm0-4a1,1,0,1,0,1,1A1,1,0,0,0,36,22Z"/></g></svg>