<svg version="1.1" id="Layer_1" xmlns="http://www.w3.org/2000/svg" xmlns:xlink="http://www.w3.org/1999/xlink" x="0px" y="0px" viewBox="0 0 64 64" style="enable-background:new 0 0 64 64;" xml:space="preserve">
<style type="text/css">
	.st0{fill:#231F20;}
</style>
<path d="M43.23,39.24c-2.27,0-4.31,1.05-5.64,2.68l-10.3-6.67c0.49-0.98,0.78-2.09,0.78-3.26c0-1.17-0.28-2.28-0.78-3.26l10.3-6.66
	c1.34,1.64,3.37,2.69,5.65,2.69c4.02,0,7.29-3.27,7.29-7.29s-3.27-7.29-7.29-7.29c-4.02,0-7.29,3.27-7.29,7.29
	c0,1.17,0.28,2.28,0.78,3.26l-10.3,6.66c-1.34-1.64-3.37-2.69-5.65-2.69c-4.02,0-7.29,3.27-7.29,7.29c0,4.02,3.27,7.29,7.29,7.29
	c2.27,0,4.31-1.05,5.64-2.68l10.3,6.67c-0.49,0.98-0.78,2.09-0.78,3.26c0,4.02,3.27,7.29,7.29,7.29c4.02,0,7.29-3.27,7.29-7.29
	C50.52,42.51,47.25,39.24,43.23,39.24z M43.23,11.78c3.14,0,5.69,2.55,5.69,5.69s-2.55,5.69-5.69,5.69c-3.14,0-5.69-2.55-5.69-5.69
	S40.09,11.78,43.23,11.78z M20.77,37.68c-3.14,0-5.69-2.55-5.69-5.69c0-3.14,2.55-5.69,5.69-5.69c3.14,0,5.69,2.55,5.69,5.69
	C26.46,35.12,23.91,37.68,20.77,37.68z M43.23,52.22c-3.14,0-5.69-2.55-5.69-5.69c0-3.14,2.55-5.69,5.69-5.69
	c3.14,0,5.69,2.55,5.69,5.69C48.92,49.67,46.37,52.22,43.23,52.22z"></path>
</svg>